<?xml version="1.0" encoding="UTF-8"?>
<svg xmlns="http://www.w3.org/2000/svg" xmlns:xlink="http://www.w3.org/1999/xlink" viewBox="0 0 48 48" width="48px" height="48px">
<g id="surface293756687">
<path style=" stroke:none;fill-rule:nonzero;fill:rgb(27.450982%,40.784314%,11.764706%);fill-opacity:1;" d="M 21 5.25 C 18.933594 5.25 17.25 6.933594 17.25 9 L 17.25 11.25 L 9.75 11.25 C 8.921875 11.25 8.25 11.921875 8.25 12.75 C 8.25 13.578125 8.921875 14.25 9.75 14.25 L 11.332031 14.25 L 12.59375 37 C 12.726562 39.382812 14.699219 41.25 17.085938 41.25 L 30.914062 41.25 C 33.300781 41.25 35.273438 39.382812 35.40625 37 L 36.667969 14.25 L 38.25 14.25 C 39.078125 14.25 39.75 13.578125 39.75 12.75 C 39.75 11.921875 39.078125 11.25 38.25 11.25 L 30.75 11.25 L 30.75 9 C 30.75 6.933594 29.066406 5.25 27 5.25 Z M 21 8.25 L 27 8.25 C 27.414062 8.25 27.75 8.585938 27.75 9 L 27.75 11.25 L 20.25 11.25 L 20.25 9 C 20.25 8.585938 20.585938 8.25 21 8.25 Z M 24 17.4375 C 24.726562 17.4375 25.3125 18.027344 25.3125 18.75 L 25.3125 33.75 C 25.3125 34.472656 24.726562 35.0625 24 35.0625 C 23.273438 35.0625 22.6875 34.472656 22.6875 33.75 L 22.6875 18.75 C 22.6875 18.027344 23.273438 17.4375 24 17.4375 Z M 30.003906 17.4375 C 30.730469 17.464844 31.296875 18.070312 31.269531 18.796875 L 30.75 33.859375 C 30.722656 34.570312 30.144531 35.128906 29.4375 35.128906 C 29.421875 35.128906 29.40625 35.125 29.390625 35.125 C 28.667969 35.101562 28.101562 34.492188 28.125 33.769531 L 28.648438 18.703125 C 28.671875 17.980469 29.28125 17.417969 30.003906 17.4375 Z M 17.992188 17.4375 C 18.714844 17.421875 19.324219 17.980469 19.351562 18.703125 L 19.875 33.769531 C 19.898438 34.492188 19.332031 35.101562 18.609375 35.128906 C 18.59375 35.128906 18.578125 35.128906 18.5625 35.128906 C 17.859375 35.128906 17.273438 34.570312 17.25 33.859375 L 16.726562 18.796875 C 16.703125 18.070312 17.269531 17.464844 17.992188 17.4375 Z M 17.992188 17.4375 "/>
</g>
</svg>
